/* XPM */
static char *audio_volume_high[] = {
/* columns rows colors chars-per-pixel */
"22 22 31 1 ",
"  c #69797B",
". c #6B787A",
"X c #6C7A7C",
"o c #707F80",
"O c #768588",
"+ c #778689",
"@ c #788789",
"# c #7A8A8B",
"$ c #7A8A8D",
"% c #7C8D8F",
"& c #7D8D90",
"* c #7E8E90",
"= c #7E8F91",
"- c #7F8F92",
"; c #7F9092",
": c #808F91",
"> c #809091",
", c #809092",
"< c #809192",
"1 c #809193",
"2 c #819293",
"3 c #819194",
"4 c #819294",
"5 c #829294",
"6 c #829394",
"7 c #829295",
"8 c #829395",
"9 c #839395",
"0 c #839496",
"q c #849496",
"w c None",
/* pixels */
"wwwwwwwwwwwwwwwwwwwwww",
"wwwwwwwwwwwwwwwwwwwwww",
"wwwwwwwwwwwwwwwwwwwwww",
"wwwwwwwwwwwwwwwwwwwwww",
"wwwwwwwwwwwwwww0wwwwww",
"wwwwwwwwwwqwwwww4wwwww",
"wwwwwwwww40wwwwwX4wwww",
"wwwwwwwwqq0www4ww4wwww",
"wwwww000000w0ww4w >www",
"wwwww000000w%ww;ww>www",
"wwwww000000ww>w+ww4www",
"wwwww000000ww&w#ww4www",
"wwwww000000w>ow&ww&www",
"wwwww000000w#ww>ww+www",
"wwwwwwww;00www4ww4wwww",
"wwwwwwwww;qwwwXww$wwww",
"wwwwwwwwww:wwwww4wwwww",
"wwwwwwwwwwwwwww4wwwwww",
"wwwwwwwwwwwwwwwwwwwwww",
"wwwwwwwwwwwwwwwwwwwwww",
"wwwwwwwwwwwwwwwwwwwwww",
"wwwwwwwwwwwwwwwwwwwwww"
};
