/* XPM */
static char *audio_volume_medium[] = {
/* columns rows colors chars-per-pixel */
"22 22 21 1 ",
"  c #6B787A",
". c #707F80",
"X c #778689",
"o c #788789",
"O c #7A8A8B",
"+ c #7C8D8F",
"@ c #7D8D90",
"# c #7E8F91",
"$ c #7F8F92",
"% c #7F9092",
"& c #808F91",
"* c #809091",
"= c #809092",
"- c #809193",
"; c #819294",
": c #829394",
"> c #829295",
", c #839395",
"< c #839496",
"1 c #849496",
"2 c None",
/* pixels */
"2222222222222222222222",
"2222222222222222222222",
"2222222222222222222222",
"2222222222222222222222",
"2222222222222222222222",
"2222222222122222222222",
"222222222;<22222222222",
"2222222211<222;2222222",
"22222<<<<<<2<22;222222",
"22222<<<<<<2+22%222222",
"22222<<<<<<22*2X222222",
"22222<<<<<<22@2O222222",
"22222<<<<<<2*.2@222222",
"22222<<<<<<2O22*222222",
"22222222%<1222;2222222",
"222222222%1222 2222222",
"2222222222*22222222222",
"2222222222222222222222",
"2222222222222222222222",
"2222222222222222222222",
"2222222222222222222222",
"2222222222222222222222"
};
