/* XPM */
static char *audio_volume_low[] = {
/* columns rows colors chars-per-pixel */
"22 22 12 1 ",
"  c #707F80",
". c #788789",
"X c #7C8D8F",
"o c #7D8D90",
"O c #7F9092",
"+ c #808F91",
"@ c #809091",
"# c #809193",
"$ c #839395",
"% c #839496",
"& c #849496",
"* c None",
/* pixels */
"**********************",
"**********************",
"**********************",
"**********************",
"**********************",
"**********&***********",
"*********$%***********",
"********$%%***********",
"*****%%%%%%*%*********",
"*****%%%%%%*X*********",
"*****%%%%%%**@********",
"*****%%%%%%**o********",
"*****%%%%%%*@.********",
"*****%%%%%%*.*********",
"********O%%***********",
"*********O%***********",
"**********+***********",
"**********************",
"**********************",
"**********************",
"**********************",
"**********************"
};
