/* XPM */
static char *battery_empty_charging[] = {
/* columns rows colors chars-per-pixel */
"22 22 11 1 ",
"  c #B92A27",
". c #CF2F2C",
"X c #D6302E",
"o c #D9312E",
"O c #D9312F",
"+ c #DA312E",
"@ c #DA312F",
"# c #DB312F",
"$ c #DC322F",
"% c #DD322F",
"& c None",
/* pixels */
"&&&&&&&&&&&&&&&&&&&&&&",
"&&&&&&&&&&&&&&&&&&&&&&",
"&&&&&&&&&&&&&&&&&&&&&&",
"&&&&&&&&&&&&&&&&&&&&&&",
"&&&&&&&&&%$%%&&&&&&&&&",
"&&&&&&&&&&&&&&&&&&&&&&",
"&&&&&&%%%$%$$%%$&&&&&&",
"&&&&&&%&&&&&&&&$&&&&&&",
"&&&&&&%&&&&&&&&%&&&&&&",
"&&&&&&$&&&$&&&&$&&&&&&",
"&&&&&&$&&$$&&&&%&&&&&&",
"&&&&&&%&&$$$%%&$&&&&&&",
"&&&&&&%&$%$$$&&%&&&&&&",
"&&&&&&$&&&&% &&$&&&&&&",
"&&&&&&%&&&&X&&&%&&&&&&",
"&&&&&&$&&&&&&&&$&&&&&&",
"&&&&&&%&&&&&&&&%&&&&&&",
"&&&&&&.%$%%$$%%.&&&&&&",
"&&&&&&&&&&&&&&&&&&&&&&",
"&&&&&&&&&&&&&&&&&&&&&&",
"&&&&&&&&&&&&&&&&&&&&&&",
"&&&&&&&&&&&&&&&&&&&&&&"
};
