/* XPM */
static char *battery_caution_charging[] = {
/* columns rows colors chars-per-pixel */
"22 22 14 1 ",
"  c #6D7C7E",
". c #DC322F",
"X c #CD3F3D",
"o c #D93633",
"O c #7B8B8E",
"+ c #808F91",
"@ c #829294",
"# c #829394",
"$ c #829295",
"% c #829395",
"& c #839395",
"* c #829496",
"= c #839496",
"- c None",
/* pixels */
"----------------------",
"----------------------",
"----------------------",
"----------------------",
"---------====---------",
"----------------------",
"------==========------",
"------=--------=------",
"------=--------=------",
"------=---&----=------",
"------=--&&----=------",
"------=--&====-=------",
"------=-&===&--=------",
"------=----= --=------",
"------=-..-+-o-=------",
"------=-..--X.-=------",
"------=--------=------",
"------O========O------",
"----------------------",
"----------------------",
"----------------------",
"----------------------"
};
