/* XPM */
static char *battery_full_charging[] = {
/* columns rows colors chars-per-pixel */
"22 22 13 1 ",
"  c #6D7C7E",
". c #7B8B8E",
"X c #808F91",
"o c #819193",
"O c #809294",
"+ c #829394",
"@ c #829295",
"# c #829395",
"$ c #839395",
"% c #829496",
"& c #839496",
"* c #829596",
"= c None",
/* pixels */
"======================",
"======================",
"======================",
"======================",
"=========&&&&=========",
"======================",
"======&&&&&&&&&&======",
"======&========&======",
"======&=&&==&&=&======",
"======&=o=@=&&=&======",
"======&==o&====&======",
"======&==&&&&&=&======",
"======&=&&&&@==&======",
"======&====@ ==&======",
"======&=&&=o=@=&======",
"======&=&&==@&=&======",
"======&========&======",
"======.&&&&&&&&.======",
"======================",
"======================",
"======================",
"======================"
};
