/* XPM */
static char *battery_5[] = {
/* columns rows colors chars-per-pixel */
"22 22 5 1 ",
"  c #839496",
". c #8F8183",
"X c #94A6A8",
"o c #073642",
"O c none",
/* pixels */
"OOOOOOOOOOOOOOOOOOOOOO",
"OOOOOOOOOOOOOOOOOOOOOO",
"OOOOOOOOOOOOOOOOOOOOOO",
"OOOOOOOOOOOOOOOOOOOOOO",
"OOOOOOOOO    OOOOOOOOO",
"OOOOOOOOOOOOOOOOOOOOOO",
"OOOOOO.        XOOOOOO",
"OOOOOO OOOOOOOO OOOOOO",
"OOOOOO OooooooO OOOOOO",
"OOOOOO OooooooO OOOOOO",
"OOOOOO O      O OOOOOO",
"OOOOOO O      O OOOOOO",
"OOOOOO O      O OOOOOO",
"OOOOOO O      O OOOOOO",
"OOOOOO O      O OOOOOO",
"OOOOOO O      O OOOOOO",
"OOOOOO OOOOOOOO OOOOOO",
"OOOOOOX        XOOOOOO",
"OOOOOOOOOOOOOOOOOOOOOO",
"OOOOOOOOOOOOOOOOOOOOOO",
"OOOOOOOOOOOOOOOOOOOOOO",
"OOOOOOOOOOOOOOOOOOOOOO"
};
