/* XPM */
static char *battery_good_charging[] = {
/* columns rows colors chars-per-pixel */
"22 22 13 1 ",
"  c #7A7C7E",
". c #7B8B8E",
"X c #8E8F91",
"o c #809395",
"O c #829395",
"+ c #839496",
"@ c #919394",
"# c #919295",
"$ c #929294",
"% c #929395",
"& c #939496",
"* c #949496",
"= c None",
/* pixels */
"======================",
"======================",
"======================",
"======================",
"=========++++=========",
"======================",
"======++++++++++======",
"======+========+======",
"======+========+======",
"======+===%====+======",
"======+==%%====+======",
"======+==%*&&*=+======",
"======+=%&&&%==+======",
"======+====& ==+======",
"======+=++=X=O=+======",
"======+=++==O+=+======",
"======+========+======",
"======.++++++++.======",
"======================",
"======================",
"======================",
"======================"
};
