/* XPM */
static char *battery_empty[] = {
/* columns rows colors chars-per-pixel */
"22 22 6 1 ",
"  c #CF2F2C",
". c #D3302D",
"X c #D9322E",
"o c #DC322F",
"O c #DD322F",
"+ c None",
/* pixels */
"++++++++++++++++++++++",
"++++++++++++++++++++++",
"++++++++++++++++++++++",
"++++++++++++++++++++++",
"+++++++++OoOO+++++++++",
"++++++++++++++++++++++",
"++++++OOOoOooOOo++++++",
"++++++O++++++++o++++++",
"++++++O+++++++++++++++",
"++++++o++++++++OO+++++",
"++++++o++++++++Oo+++++",
"++++++O++++++++oO+++++",
"++++++O++++++++Oo+++++",
"++++++o++++++++oO+++++",
"++++++O++++++++oo+++++",
"++++++o++++++++..+++++",
"++++++O+++++++++++++++",
"++++++ OoOOooO+oO+++++",
"+++++++++++++++Oo+++++",
"++++++++++++++++++++++",
"++++++++++++++++++++++",
"++++++++++++++++++++++"
};
