/* XPM */
static char *battery_good[] = {
/* columns rows colors chars-per-pixel */
"22 22 3 1 ",
"  c #7B8B8E",
". c #839496",
"X c None",
/* pixels */
"XXXXXXXXXXXXXXXXXXXXXX",
"XXXXXXXXXXXXXXXXXXXXXX",
"XXXXXXXXXXXXXXXXXXXXXX",
"XXXXXXXXXXXXXXXXXXXXXX",
"XXXXXXXXX....XXXXXXXXX",
"XXXXXXXXXXXXXXXXXXXXXX",
"XXXXXX..........XXXXXX",
"XXXXXX.XXXXXXXX.XXXXXX",
"XXXXXX.XXXXXXXX.XXXXXX",
"XXXXXX.XXXXXXXX.XXXXXX",
"XXXXXX.X......X.XXXXXX",
"XXXXXX.X......X.XXXXXX",
"XXXXXX.X......X.XXXXXX",
"XXXXXX.X......X.XXXXXX",
"XXXXXX.X......X.XXXXXX",
"XXXXXX.X......X.XXXXXX",
"XXXXXX.XXXXXXXX.XXXXXX",
"XXXXXX ........ XXXXXX",
"XXXXXXXXXXXXXXXXXXXXXX",
"XXXXXXXXXXXXXXXXXXXXXX",
"XXXXXXXXXXXXXXXXXXXXXX",
"XXXXXXXXXXXXXXXXXXXXXX"
};
