/* XPM */
static char *circle_filling_0[] = {
/* columns rows colors chars-per-pixel */
"22 22 2 1 ",
"  c #839496",
". c None",
/* pixels */
"......................",
"......................",
"......................",
"........      ........",
"......  ......  ......",
"..... .......... .....",
".... ............ ....",
".... ............ ....",
"... .............. ...",
"... .............. ...",
"... .............. ...",
"... .............. ...",
"... .............. ...",
"... .............. ...",
".... ............ ....",
".... ............ ....",
"..... .......... .....",
"......  ......  ......",
"........      ........",
"......................",
"......................",
"......................"
};
