/* XPM */
static char *fan_6[] = {
/* columns rows colors chars-per-pixel */
"22 22 2 1 ",
"  c #DC322F",
". c None",
/* pixels */
"......................",
"......................",
"......................",
".......    ...........",
"......      ..........",
"......      ..........",
"......      ..........",
".......     ..........",
"........    ..........",
"......... .....    ...",
"..........  .       ..",
".......  .  .       ..",
"......    ..        ..",
".....     ...      ...",
".....     .....   ....",
"....      ............",
"....      ............",
".....     ............",
"......   .............",
"......................",
"......................",
"......................"
};
